<svg xmlns="http://www.w3.org/2000/svg" width="36" height="36" viewBox="0 0 36 36">
  <g id="eye_close" data-name="eye close" transform="translate(9762.001 6178.7)">
    <rect id="Rectangle_5557" data-name="Rectangle 5557" width="36" height="36" transform="translate(-9762.001 -6178.7)" fill="none"/>
    <path id="eye-close" d="M20.092,8.2Q19.061,8.094,18,8.078a22.1,22.1,0,0,0-9.327,2.206,23.768,23.768,0,0,0-6.35,4.625A7.839,7.839,0,0,0,0,18.862c.023,1.325,1.445,2.96,2.323,3.953a23.405,23.405,0,0,0,6.35,4.625l.248.119L6.669,31.492,9.729,33.3,26.271,4.5,23.325,2.7,20.091,8.206Zm6.985,1.964-2.248,3.9a7.83,7.83,0,0,1,1.648,4.8A8.3,8.3,0,0,1,18,26.97c-.2,0-.4-.022-.6-.035L15.912,29.51c.686.073,1.38.127,2.087.136a22.2,22.2,0,0,0,9.325-2.206,23.777,23.777,0,0,0,6.352-4.625A7.835,7.835,0,0,0,36,18.862c-.023-1.325-1.445-2.96-2.323-3.953a23.415,23.415,0,0,0-6.352-4.625c-.082-.04-.166-.075-.248-.114ZM18,10.753c.2,0,.409.008.611.022l-1.742,3.017a5.239,5.239,0,0,0-4.28,5.067,4.973,4.973,0,0,0,.327,1.78v0l-1.747,3.026a7.836,7.836,0,0,1-1.648-4.805A8.3,8.3,0,0,1,18,10.754Zm5.069,6.361-3.927,6.8a5.234,5.234,0,0,0,4.254-5.058,4.975,4.975,0,0,0-.327-1.745Z" transform="translate(-9762 -6178.7)" fill="#919191"/>
  </g>
</svg>
