<svg xmlns="http://www.w3.org/2000/svg" width="36" height="36" viewBox="0 0 36 36">
  <g id="eye_open" data-name="eye open" transform="translate(9650 6178.7)">
    <rect id="Rectangle_5558" data-name="Rectangle 5558" width="36" height="36" transform="translate(-9650 -6178.7)" fill="none"/>
    <path id="eye-open" d="M23.4,18a5.3,5.3,0,0,1-5.405,5.178A5.3,5.3,0,0,1,12.585,18,5.3,5.3,0,0,1,17.99,12.82,5.3,5.3,0,0,1,23.4,18ZM18,7.216A22.094,22.094,0,0,0,8.673,9.423a23.725,23.725,0,0,0-6.351,4.624A7.835,7.835,0,0,0,0,18c.023,1.325,1.444,2.96,2.322,3.953a23.389,23.389,0,0,0,6.351,4.625A21.856,21.856,0,0,0,18,28.784a22.2,22.2,0,0,0,9.326-2.207,23.777,23.777,0,0,0,6.352-4.625A7.834,7.834,0,0,0,36,18c-.023-1.325-1.444-2.96-2.322-3.953a23.412,23.412,0,0,0-6.352-4.624A21.994,21.994,0,0,0,18,7.216Zm0,2.677A8.3,8.3,0,0,1,26.478,18,8.3,8.3,0,0,1,18,26.108,8.3,8.3,0,0,1,9.517,18,8.3,8.3,0,0,1,18,9.893Z" transform="translate(-9650 -6178.7)" fill="#919191"/>
  </g>
</svg>
