<svg xmlns="http://www.w3.org/2000/svg" xmlns:xlink="http://www.w3.org/1999/xlink" width="329" height="95.66" viewBox="0 0 329 95.66">
  <defs>
    <style>
      .cls-1 {
        fill: url(#linear-gradient);
      }

      .cls-2 {
        fill: url(#linear-gradient-4);
      }

      .cls-3 {
        fill: #fff;
      }

      .cls-4 {
        fill: #01a1e8;
      }
    </style>
    <linearGradient id="linear-gradient" x1="0.5" x2="0.5" y2="1" gradientUnits="objectBoundingBox">
      <stop offset="0" stop-color="#01a1e8"/>
      <stop offset="1" stop-color="#1e6fb9"/>
    </linearGradient>
    <linearGradient id="linear-gradient-4" x1="0.5" x2="0.5" y2="1" gradientUnits="objectBoundingBox">
      <stop offset="0" stop-color="#fd9616"/>
      <stop offset="1" stop-color="#f35526"/>
    </linearGradient>
  </defs>
  <g id="Group_16897" data-name="Group 16897" transform="translate(-1244 -202)">
    <g id="Group_16551" data-name="Group 16551" transform="translate(-3795.662 -1336.432)">
      <path id="Path_10157" data-name="Path 10157" class="cls-1" d="M3010.025,6680.285h-11.843v-49.24h11.66c.111,1.4.218,2.741.361,4.537,1.221-.808,2.172-1.418,3.1-2.06,8.388-5.793,18.021-5.2,24.256,1.43,3.086,3.282,4.033,7.391,4.1,11.6.179,10.9.058,21.809.045,32.713a4.478,4.478,0,0,1-.247.96h-11.966c0-1.267.008-2.438,0-3.61-.068-8.4-.127-16.8-.224-25.2a22.376,22.376,0,0,0-.355-3.265c-.588-3.676-2.412-6.368-6.235-7.164-3.8-.794-6.823.682-9.267,3.571-3.073,3.632-3.261,8.074-3.351,12.463-.136,6.6-.036,13.2-.036,19.808Z" transform="translate(2225.31 -5065.379)"/>
      <path id="Path_10155" data-name="Path 10155" class="cls-1" d="M3169.115,6659.014h-39.027c-.678,4.16,2.9,9.083,7.773,10.773,5.912,2.05,11.345,1.087,16.445-2.535a4.106,4.106,0,0,1,3.324-.369c2.763,1.064,5.386,2.491,8.061,3.775-4.733,9.539-20.478,13.793-32.572,9-12.581-4.986-18.522-18.8-14.161-32.917,3.888-12.58,17.2-19.681,30.961-16.519C3162.679,6633.153,3170.961,6645.381,3169.115,6659.014Zm-12.428-9.642c-.84-5.224-5.969-9.056-12.352-9.379-6.78-.348-12.411,3.4-13.913,9.379Z" transform="translate(2199.29 -5065.351)"/>
      <path id="Path_10156" data-name="Path 10156" class="cls-1" d="M2949.034,6659.154H2909.94c-.376,4.779,3.837,9.841,9.136,11.169a16.648,16.648,0,0,0,15-2.957,3,3,0,0,1,3.722-.427c2.56,1.329,5.2,2.5,7.8,3.743-4.3,9.22-18.409,13.319-30.6,9.759-13.132-3.836-20.123-17.533-16.538-32.227,3.188-13.07,16.015-20.55,30.883-18C2942.079,6632.386,2950.807,6645.03,2949.034,6659.154Zm-12.1-9.649a13.355,13.355,0,0,0-13.631-9.5c-6.555.234-11.6,3.919-12.856,9.5Z" transform="translate(2265.508 -5065.447)"/>
      <g id="Group_15824" data-name="Group 15824" transform="translate(5275.855 1563.897)">
        <path id="Path_10135" data-name="Path 10135" class="cls-2" d="M2190.661,8682.469v38.84h-9.886V8690.4h-6.634l6.634-7.922.009-.01Z" transform="translate(-2157.398 -8668.563)"/>
        <path id="Path_10136" data-name="Path 10136" class="cls-2" d="M2090.168,8682.469l-6.819,8.143h-.8v30.7h-9.886v-38.84Z" transform="translate(-2072.658 -8668.563)"/>
        <circle id="Ellipse_359" data-name="Ellipse 359" class="cls-2" cx="4.978" cy="4.978" r="4.978" transform="translate(23.204 0)"/>
        <circle id="Ellipse_360" data-name="Ellipse 360" class="cls-2" cx="4.978" cy="4.978" r="4.978" transform="translate(0.805 0)"/>
      </g>
      <g id="Group_15955" data-name="Group 15955" transform="translate(5108.662 1556.43)">
        <path id="Path_10154" data-name="Path 10154" class="cls-1" d="M38.246-82.124v4.02A15.25,15.25,0,0,0,26.623-83.26a19.636,19.636,0,0,0-14.158,5.943A22.517,22.517,0,0,0,6.7-62.023a20.633,20.633,0,0,0,5.418,14.245c2.622,2.709,7.254,5.506,14.42,5.506a14.867,14.867,0,0,0,11.711-5.156V-43.5a9.4,9.4,0,0,1-2.8,7.254,8.5,8.5,0,0,1-6.2,2.185c-4.632,0-6.03-2.447-6.554-4.02H7.134a14.2,14.2,0,0,0,4.282,8.128c4.981,5.069,11.012,6.9,18.265,6.9,5.681,0,12.235-1.224,17.216-6.292,4.807-4.981,5.331-10.312,5.331-16.168V-82.124Z" transform="translate(-6.697 83.26)"/>
        <path id="Path_10169" data-name="Path 10169" class="cls-3" d="M2362.5,7486.348c-.45-3.142-2.082-4.674-5.447-4.945-2.05-.166-4.109-.219-6.157-.4-4.032-.365-6.79-2.412-7.9-6.371-.42-1.5-.558-3.081-.831-4.625-.064-.362.116-.49.429-.61.481-.185.937-.44,1.4-.665l-.074-.156c-.132.05-.265.1-.4.156a3.55,3.55,0,0,1-4.521-1.384,2.351,2.351,0,0,1-.384-1.424,4.839,4.839,0,0,1,2.187-3.328,10.656,10.656,0,0,1,2.73-.948,1.389,1.389,0,0,0,1.032-2.248,4.948,4.948,0,0,1-.558-.969c-.065-.224.1-.521.176-.78a2.221,2.221,0,0,0,.185-.581,2.37,2.37,0,0,1,1.426-2.405c.266-.128.433-.561.538-.89.125-.392.075-.842.209-1.229a1.368,1.368,0,0,1,1.195-.927,1.169,1.169,0,0,1,1.161.727c.487.809.792,1.759,1.843,2.209a1.536,1.536,0,0,1-1.631.027c-.38-.164-.7-.492-1.083-.626-.22-.075-.525.09-.792.146.113.206.175.517.346.6a2.342,2.342,0,0,1,1.38,2.3c0,.193-.01.487.1.563.65.444.251.871.024,1.307a6.81,6.81,0,0,0-.518.992,1.265,1.265,0,0,0,1.061,1.737,12.286,12.286,0,0,1,2.862.984,4.725,4.725,0,0,1,2.23,3.37,2.313,2.313,0,0,1-1.269,2.437,2.72,2.72,0,0,1-3.116.244,16.352,16.352,0,0,1-1.619-1.36,22.2,22.2,0,0,0-2.454-2,3.337,3.337,0,0,0-3.4.021l.478-.051a4.239,4.239,0,0,1,3.8,1.32c.526.566.974,1.212,1.528,1.744a15.605,15.605,0,0,0,1.982,1.626.541.541,0,0,1,.277.68,19.95,19.95,0,0,0-.435,3.007,4.254,4.254,0,0,0,2.875,4.343c1.352.535,2.776.888,4.161,1.342a25.065,25.065,0,0,1,2.428.88,4.3,4.3,0,0,1,2.687,4.077A20.154,20.154,0,0,1,2362.5,7486.348Z" transform="translate(-2330.91 -7449.331)"/>
      </g>
    </g>
    <path id="Path_11432" data-name="Path 11432" class="cls-4" d="M2404.358,7547.266c-1.238-8.65-5.733-12.869-15-13.617-5.644-.457-11.315-.6-16.952-1.111-11.1-1.006-18.7-6.641-21.744-17.541-1.158-4.133-1.535-8.484-2.288-12.734-.178-1,.318-1.352,1.18-1.682,1.326-.508,2.579-1.213,3.864-1.83l-.2-.432c-.363.139-.729.277-1.088.432a9.775,9.775,0,0,1-12.447-3.811,6.473,6.473,0,0,1-1.058-3.92c.912-3.7,2.514-7.25,6.022-9.164a29.25,29.25,0,0,1,7.518-2.611c3.339-.766,4.571-3.148,2.842-6.189a13.674,13.674,0,0,1-1.535-2.668c-.18-.615.28-1.434.484-2.148a6.1,6.1,0,0,0,.51-1.6,6.525,6.525,0,0,1,3.926-6.623c.731-.352,1.191-1.543,1.48-2.449.344-1.078.206-2.318.576-3.385a3.767,3.767,0,0,1,3.29-2.553c1.569-.187,2.47.8,3.2,2,1.342,2.227,2.181,4.844,5.075,6.084-1.686,1.139-3.136.654-4.49.074-1.047-.451-1.917-1.355-2.983-1.723-.606-.207-1.445.246-2.182.4.312.566.481,1.422.954,1.65a6.449,6.449,0,0,1,3.8,6.344c0,.531-.028,1.342.279,1.551,1.79,1.223.692,2.4.066,3.6a18.766,18.766,0,0,0-1.425,2.732c-.8,2.484.429,4.143,2.921,4.783a33.763,33.763,0,0,1,7.88,2.711c3.54,1.928,5.347,5.461,6.141,9.279.608,2.922-1.069,5.146-3.493,6.709-2.723,1.75-5.643,2.541-8.579.672a45.083,45.083,0,0,1-4.457-3.746,61.091,61.091,0,0,0-6.756-5.516c-2.959-1.83-6.241-1.539-9.375.057.438-.047.878-.09,1.316-.139a11.669,11.669,0,0,1,10.452,3.635c1.448,1.561,2.681,3.338,4.208,4.8a43.008,43.008,0,0,0,5.457,4.477,1.489,1.489,0,0,1,.764,1.871,55,55,0,0,0-1.2,8.279,11.712,11.712,0,0,0,7.916,11.957c3.723,1.475,7.645,2.445,11.458,3.7a69.325,69.325,0,0,1,6.686,2.422c4.811,2.152,7.25,6,7.4,11.227A55.709,55.709,0,0,1,2404.358,7547.266Z" transform="translate(-1094.623 -7249.605)"/>
  </g>
</svg>
